<svg xmlns="http://www.w3.org/2000/svg" xmlns:xlink="http://www.w3.org/1999/xlink" fill-rule="evenodd" stroke-linejoin="round" stroke-miterlimit="2" clip-rule="evenodd" viewBox="0 0 14 14"><path fill="#14a800" d="M10.285 8.807l3.409 3.412a1.039 1.039 0 010 1.474 1.031 1.031 0 01-.736.307c-.269 0-.535-.102-.738-.307l-3.41-3.41a5.607 5.607 0 01-3.177.982A5.64 5.64 0 010 5.632 5.64 5.64 0 015.633 0a5.64 5.64 0 015.635 5.633 5.618 5.618 0 01-.983 3.174zM1.514 5.632a4.12 4.12 0 108.241 0 4.12 4.12 0 10-8.241 0z"/></svg>